<svg width="118" height="192" viewBox="0 0 118 192" fill="none" xmlns="http://www.w3.org/2000/svg">
<path d="M30.6977 9.90638C47.52 -2.51991 70.48 -2.51991 87.3023 9.90637V9.90637C96.4185 16.6404 102.835 26.4041 105.399 37.4439L116.497 85.2229C118.144 92.3133 118.144 99.6867 116.497 106.777L105.399 154.556C102.835 165.596 96.4185 175.36 87.3023 182.094V182.094C70.48 194.52 47.52 194.52 30.6977 182.094V182.094C21.5815 175.36 15.165 165.596 12.6008 154.556L1.50319 106.777C-0.143683 99.6867 -0.143682 92.3133 1.50319 85.2229L12.6008 37.4439C15.165 26.4041 21.5815 16.6404 30.6977 9.90638V9.90638Z" fill="#C4C4C4"/>
<path d="M22.9376 59.9376C15.8051 67.07 10.9478 76.1574 8.97995 86.0504C7.0121 95.9434 8.02208 106.198 11.8821 115.517C15.7422 124.836 22.279 132.801 30.6659 138.405C39.0528 144.009 48.9132 147 59 147L59 96L22.9376 59.9376Z" fill="#4F9D8B"/>
<path d="M59 147C69.0868 147 78.9472 144.009 87.3341 138.405C95.721 132.801 102.258 124.836 106.118 115.517C109.978 106.198 110.988 95.9434 109.02 86.0504C107.052 76.1574 102.195 67.07 95.0624 59.9376L59 96L59 147Z" fill="#4F9D8B"/>
<path d="M95.0624 59.9375C90.3267 55.2018 84.7045 51.4451 78.5168 48.8821C72.3292 46.3192 65.6974 45 59 45C52.3026 45 45.6707 46.3192 39.4831 48.8821C33.2955 51.4451 27.6733 55.2018 22.9375 59.9376L59 96L95.0624 59.9375Z" fill="#69BBB1"/>
<path d="M39.4831 143.118C45.6708 145.681 52.3026 147 59 147C65.6974 147 72.3293 145.681 78.5169 143.118L59 96L39.4831 143.118Z" fill="#69BBB1"/>
<path d="M50.5724 81.6998C53.1603 73.5012 64.8397 73.5012 67.4276 81.6998V81.6998C68.2818 84.406 70.4341 86.529 73.157 87.3281V87.3281C81.3145 89.7224 81.3145 101.278 73.157 103.672V103.672C70.4341 104.471 68.2818 106.594 67.4276 109.3V109.3C64.8397 117.499 53.1603 117.499 50.5724 109.3V109.3C49.7182 106.594 47.5659 104.471 44.843 103.672V103.672C36.6855 101.278 36.6855 89.7224 44.843 87.3281V87.3281C47.5659 86.529 49.7182 84.406 50.5724 81.6998V81.6998Z" fill="#DECD37"/>
</svg>
