<svg width="100" height="100" viewBox="0 0 100 100" fill="none" xmlns="http://www.w3.org/2000/svg">
<!-- <rect width="100" height="100" fill="#F5F5F5"/> -->
<circle id="background" cx="50" cy="50" r="50" fill="white"/>
<path id="BT" d="M17.1255 36.376C17.1255 32.3227 18.9175 28.9733 22.5015 26.328C26.0855 23.64 30.8215 22.296 36.7095 22.296C39.8242 22.296 42.6188 22.616 45.0935 23.256C47.5682 23.8533 49.5308 24.6213 50.9815 25.56C52.4322 26.4987 53.6482 27.5867 54.6295 28.824C56.2508 30.9573 57.0402 33.3467 56.9975 35.992C56.9975 38.5947 55.9735 40.92 53.9255 42.968C51.8775 45.016 49.4028 46.0827 46.5015 46.168C50.1282 46.424 53.2642 47.6187 55.9095 49.752C58.5975 51.8853 59.9415 54.5733 59.9415 57.816C59.9415 62.0827 58.2988 65.4107 55.0135 67.8C51.7282 70.1893 47.7175 71.384 42.9815 71.384C38.2882 71.384 35.0882 70.7653 33.3815 69.528L35.3655 64.152C37.2428 65.1333 39.4188 65.624 41.8935 65.624C44.4108 65.624 46.4588 64.8987 48.0375 63.448C49.6162 61.9547 50.4055 59.992 50.4055 57.56C50.4055 55.128 49.3175 53.08 47.1415 51.416C45.0082 49.752 42.0855 48.92 38.3735 48.92L38.9495 44.184C41.5095 44.184 43.6642 43.5867 45.4135 42.392C47.2055 41.1547 48.1228 39.32 48.1655 36.888C48.2508 34.456 47.1628 32.408 44.9015 30.744C42.4695 28.9947 39.1415 28.12 34.9175 28.12C32.1442 28.12 29.4348 28.8453 26.7895 30.296C24.1442 31.704 22.8215 33.6027 22.8215 35.992C22.8215 37.144 23.2908 38.1253 24.2295 38.936C25.1682 39.704 26.4055 40.1733 27.9415 40.344L27.2375 45.08C23.9948 44.952 21.4988 44.0347 19.7495 42.328C18.0002 40.6213 17.1255 38.6373 17.1255 36.376ZM35.4295 58.712C34.7468 63.2773 33.4242 66.52 31.4615 68.44C29.4988 70.3173 27.1948 71.256 24.5495 71.256C21.9042 71.256 19.8988 70.5733 18.5335 69.208C17.1682 67.8427 16.4855 66.0933 16.4855 63.96C16.4855 58.9253 20.3042 54.6373 27.9415 51.096C28.1548 49.304 28.4535 46.8933 28.8375 43.864C29.2642 40.792 29.5842 38.3173 29.7975 36.44C30.0535 34.5627 30.2242 33.3253 30.3095 32.728C32.0588 31.6187 34.0855 31.064 36.3895 31.064C37.4562 31.064 38.4802 31.1707 39.4615 31.384L35.4295 58.712ZM21.2215 63.128C21.2215 64.664 21.9468 65.432 23.3975 65.432C23.9948 65.432 24.6135 65.048 25.2535 64.28C25.9362 63.4693 26.4055 62.2107 26.6615 60.504L27.2375 56.536C23.2268 58.7973 21.2215 60.9947 21.2215 63.128ZM76.3275 29.912C75.4315 31.8747 74.1088 33.496 72.3595 34.776C70.6102 36.056 68.7115 36.696 66.6635 36.696C64.6155 36.696 62.9302 36.0987 61.6075 34.904C60.3275 33.7093 59.6875 31.9387 59.6875 29.592C59.6875 27.2453 60.7328 25.4533 62.8235 24.216C64.9142 22.936 67.3675 22.296 70.1835 22.296H95.5915C95.7195 22.8933 95.7835 23.4693 95.7835 24.024C95.7835 25.4747 95.3142 26.8187 94.3755 28.056C93.4368 29.2933 92.0075 29.912 90.0875 29.912C90.0022 29.912 89.9382 29.912 89.8955 29.912H76.3275ZM68.0075 29.912C66.4288 29.912 65.6395 30.4667 65.6395 31.576C65.6395 32.472 66.3222 32.92 67.6875 32.92C68.3275 32.92 69.0742 32.6427 69.9275 32.088C70.8235 31.5333 71.5702 30.808 72.1675 29.912H68.0075ZM81.2555 58.712C80.1888 67.0747 76.4128 71.256 69.9275 71.256C67.6235 71.256 65.7675 70.552 64.3595 69.144C62.9942 67.736 62.3115 65.9653 62.3115 63.832C62.3115 58.84 66.1088 54.5733 73.7035 51.032L75.9435 34.008C77.6928 32.8987 79.7195 32.344 82.0235 32.344C83.0902 32.344 84.1142 32.4507 85.0955 32.664L81.2555 58.712ZM72.9995 56.472C69.0315 58.776 67.0475 60.9947 67.0475 63.128C67.0475 64.664 67.7942 65.432 69.2875 65.432C70.9942 65.432 72.0608 63.7893 72.4875 60.504L72.9995 56.472Z" fill="black"/>
</svg>

